<svg xmlns="http://www.w3.org/2000/svg" viewBox="0 0 240 180" role="img" aria-labelledby="title desc">
<title id="title">Israel Church of God icon</title>
<desc id="desc">A simplified white church with blue roof, steeple, cross, and blue monument sign.</desc>
<rect width="240" height="180" fill="none"/>
<path d="M36 145h164v10H36z" fill="#d9d4c6"/>
<path d="M55 82h128v63H55z" fill="#fbfaf5" stroke="#0f2045" stroke-width="4"/>
<path d="M45 84 119 39l75 45" fill="#0f2045"/>
<path d="M60 79 119 46l60 33" fill="#f5f2e9"/>
<path d="M102 25h34v38h-34z" fill="#fbfaf5" stroke="#0f2045" stroke-width="4"/>
<path d="M97 28 119 10l22 18" fill="#0f2045"/>
<path d="M119 2v17M110 10h18" stroke="#0f2045" stroke-width="5" stroke-linecap="round"/>
<path d="M105 97h28v48h-28z" fill="#0f2045"/>
<path d="M109 101h20v40h-20z" fill="#cfe5f2"/>
<rect x="145" y="102" width="25" height="24" fill="#cfe5f2" stroke="#0f2045" stroke-width="3"/>
<rect x="68" y="102" width="25" height="24" fill="#cfe5f2" stroke="#0f2045" stroke-width="3"/>
<path d="M13 118h48v32H13z" fill="#0f2045"/>
<path d="M17 122h40v24H17z" fill="#ffffff"/>
<text x="37" y="132" text-anchor="middle" font-family="Georgia, serif" font-size="7" fill="#0f2045">ISRAEL</text>
<text x="37" y="140" text-anchor="middle" font-family="Arial, sans-serif" font-size="5" fill="#0f2045">CHURCH OF GOD</text>
</svg>